<svg width="24" height="24" viewBox="0 0 24 24" fill="none" xmlns="http://www.w3.org/2000/svg">
<path d="M2.55469 5.09766C2.55469 5.76429 3.09511 6.30469 3.76172 6.30469H19.9336C20.6002 6.30469 21.1406 5.76429 21.1406 5.09766C21.1406 4.43102 20.6002 3.89062 19.9336 3.89062H3.76172C3.09511 3.89062 2.55469 4.43102 2.55469 5.09766ZM6.46875 12.0352C6.46875 12.7018 7.00917 13.2422 7.67578 13.2422H19.9336C20.6002 13.2422 21.1406 12.7018 21.1406 12.0352C21.1406 11.3685 20.6002 10.8281 19.9336 10.8281H7.67578C7.00917 10.8281 6.46875 11.3685 6.46875 12.0352ZM12.9609 18.9492C12.9609 19.6158 13.5013 20.1562 14.168 20.1562H19.9336C20.6002 20.1562 21.1406 19.6158 21.1406 18.9492C21.1406 18.2826 20.6002 17.7422 19.9336 17.7422H14.168C13.5013 17.7422 12.9609 18.2826 12.9609 18.9492Z" fill="white"/>
</svg>
